<?xml version="1.0" encoding="iso-8859-1"?><!-- Generator: Adobe Illustrator 22.0.0, SVG Export Plug-In . SVG Version: 6.00 Build 0)  --><svg xmlns="http://www.w3.org/2000/svg" xmlns:xlink="http://www.w3.org/1999/xlink" viewBox="0 0 64 64" width="64px" height="64px"><linearGradient id="SVGID_1__61901" gradientUnits="userSpaceOnUse" x1="31" y1="14" x2="31" y2="48" spreadMethod="reflect"><stop offset="0" style="stop-color:#6DC7FF"/><stop offset="1" style="stop-color:#E6ABFF"/></linearGradient><path style="fill:url(#SVGID_1__61901);" d="M40.644,45.942c-1.451,0.72-3.008,1.337-4.675,1.704C34.931,47.874,33.851,48,32.727,48  c-1.176,0-2.369-0.093-3.577-0.299c-1.737-0.296-3.506-0.814-5.303-1.583C18.83,43.989,14.668,40.261,12,36  c1.341,1.25,6.469,5,12.722,5c6.379,0,8.787-2.521,8.785-2.523C26.378,33.227,17.626,22.875,15,19  c4.909,4.473,13.294,10.124,16.069,11.722C25.199,24.544,20,17,20,17c9.285,9.373,18.802,15.006,18.98,15.125  c0.875-1.75,1.001-4.19,1.001-5.625c0-4.5-2.229-9.75-4.981-12.5c7.284,4.397,11.96,12.046,11.985,19.25  c0.005,1.346-0.147,2.677-0.483,3.969l-0.079,0.232c0,0,0.417,0.482,0.442,0.513c4.313,5.29,3.095,10.971,2.561,9.905  c-1.217-2.376-2.979-2.83-4.692-2.87C43.186,44.965,41.649,45.443,40.644,45.942z"/><linearGradient id="SVGID_2__61901" gradientUnits="userSpaceOnUse" x1="32" y1="6.6667" x2="32" y2="57.8724" spreadMethod="reflect"><stop offset="0" style="stop-color:#1A6DFF"/><stop offset="1" style="stop-color:#C822FF"/></linearGradient><path style="fill:url(#SVGID_2__61901);" d="M44,57H20c-7.168,0-13-5.832-13-13V20c0-7.168,5.832-13,13-13h24c7.168,0,13,5.832,13,13v24  C57,51.168,51.168,57,44,57z M20,9C13.935,9,9,13.935,9,20v24c0,6.065,4.935,11,11,11h24c6.065,0,11-4.935,11-11V20  c0-6.065-4.935-11-11-11H20z"/></svg>